<mxfile host="app.diagrams.net" modified="2024-05-26T20:54:15.148Z" agent="Mozilla/5.0 (Windows NT 10.0; Win64; x64; rv:126.0) Gecko/20100101 Firefox/126.0" etag="5CzJvOVvKiQWZ3GQK1yw" version="24.4.8" type="device">
  <diagram name="Page-1" id="2a216829-ef6e-dabb-86c1-c78162f3ba2b">
    <mxGraphModel dx="2868" dy="1432" grid="1" gridSize="10" guides="1" tooltips="1" connect="1" arrows="1" fold="1" page="1" pageScale="1" pageWidth="850" pageHeight="1100" background="none" math="0" shadow="0">
      <root>
        <mxCell id="0" />
        <mxCell id="1" parent="0" />
        <mxCell id="PFMPHeuaQwfX52uo41oM-33" style="edgeStyle=orthogonalEdgeStyle;rounded=0;orthogonalLoop=1;jettySize=auto;html=1;" edge="1" parent="1" source="7a84cebc1def654-1" target="PFMPHeuaQwfX52uo41oM-32">
          <mxGeometry relative="1" as="geometry" />
        </mxCell>
        <mxCell id="7a84cebc1def654-1" value="Start" style="shape=mxgraph.bpmn.shape;html=1;verticalLabelPosition=bottom;labelBackgroundColor=#ffffff;verticalAlign=top;perimeter=ellipsePerimeter;outline=standard;symbol=general;fillColor=#d5e8d4;strokeColor=#82b366;" parent="1" vertex="1">
          <mxGeometry x="150" y="495" width="50" height="50" as="geometry" />
        </mxCell>
        <mxCell id="PFMPHeuaQwfX52uo41oM-38" style="edgeStyle=orthogonalEdgeStyle;rounded=0;orthogonalLoop=1;jettySize=auto;html=1;" edge="1" parent="1" source="PFMPHeuaQwfX52uo41oM-2" target="PFMPHeuaQwfX52uo41oM-36">
          <mxGeometry relative="1" as="geometry" />
        </mxCell>
        <mxCell id="PFMPHeuaQwfX52uo41oM-2" value="Récupération&lt;br&gt;des données &lt;br&gt;pour chaque action du cac40 &lt;br&gt;API yfinance" style="html=1;whiteSpace=wrap;rounded=1;" vertex="1" parent="1">
          <mxGeometry x="525" y="475" width="120" height="90" as="geometry" />
        </mxCell>
        <mxCell id="PFMPHeuaQwfX52uo41oM-3" value="" style="shape=mxgraph.bpmn.timer_start;perimeter=ellipsePerimeter;html=1;labelPosition=right;labelBackgroundColor=#ffffff;align=left;" vertex="1" parent="PFMPHeuaQwfX52uo41oM-2">
          <mxGeometry x="1" width="30" height="30" relative="1" as="geometry">
            <mxPoint x="-15" y="10" as="offset" />
          </mxGeometry>
        </mxCell>
        <mxCell id="PFMPHeuaQwfX52uo41oM-14" style="edgeStyle=orthogonalEdgeStyle;rounded=0;orthogonalLoop=1;jettySize=auto;html=1;exitX=1;exitY=0.5;exitDx=0;exitDy=0;exitPerimeter=0;" edge="1" parent="1" source="PFMPHeuaQwfX52uo41oM-11" target="PFMPHeuaQwfX52uo41oM-15">
          <mxGeometry relative="1" as="geometry">
            <mxPoint x="380" y="175" as="targetPoint" />
          </mxGeometry>
        </mxCell>
        <mxCell id="PFMPHeuaQwfX52uo41oM-11" value="Start" style="points=[[0.145,0.145,0],[0.5,0,0],[0.855,0.145,0],[1,0.5,0],[0.855,0.855,0],[0.5,1,0],[0.145,0.855,0],[0,0.5,0]];shape=mxgraph.bpmn.event;html=1;verticalLabelPosition=bottom;labelBackgroundColor=#ffffff;verticalAlign=top;align=center;perimeter=ellipsePerimeter;outlineConnect=0;aspect=fixed;outline=throwing;symbol=general;fillColor=#d5e8d4;strokeColor=#82b366;" vertex="1" parent="1">
          <mxGeometry x="160" y="150" width="50" height="50" as="geometry" />
        </mxCell>
        <mxCell id="PFMPHeuaQwfX52uo41oM-12" value="&lt;h1 align=&quot;left&quot;&gt;&lt;span style=&quot;background-color: rgb(0, 255, 64);&quot;&gt;Processus au lancement initial du robot :&lt;/span&gt;&lt;br&gt;&lt;span style=&quot;background-color: rgb(0, 255, 64);&quot;&gt;Récolte des données historiques des actions du CAC40&lt;/span&gt;&lt;/h1&gt;" style="text;html=1;align=left;verticalAlign=middle;resizable=0;points=[];autosize=1;strokeColor=none;fillColor=none;" vertex="1" parent="1">
          <mxGeometry x="140" y="10" width="660" height="100" as="geometry" />
        </mxCell>
        <mxCell id="PFMPHeuaQwfX52uo41oM-13" value="&lt;h1 align=&quot;left&quot;&gt;&lt;span style=&quot;background-color: rgb(0, 255, 64);&quot;&gt;Processus à l&#39;exécution quotidien du robot :&lt;/span&gt;&lt;br&gt;&lt;span style=&quot;background-color: rgb(0, 255, 64);&quot;&gt;Récolte des données intraday des actions du CAC40&lt;br&gt;et envoie d&#39;un mail à la clôture des marchés&lt;br&gt;&lt;/span&gt;&lt;/h1&gt;" style="text;html=1;align=left;verticalAlign=middle;resizable=0;points=[];autosize=1;strokeColor=none;fillColor=none;" vertex="1" parent="1">
          <mxGeometry x="140" y="335" width="620" height="130" as="geometry" />
        </mxCell>
        <mxCell id="PFMPHeuaQwfX52uo41oM-17" style="edgeStyle=orthogonalEdgeStyle;rounded=0;orthogonalLoop=1;jettySize=auto;html=1;" edge="1" parent="1" source="PFMPHeuaQwfX52uo41oM-15" target="PFMPHeuaQwfX52uo41oM-16">
          <mxGeometry relative="1" as="geometry" />
        </mxCell>
        <mxCell id="PFMPHeuaQwfX52uo41oM-15" value="Récupération&lt;br&gt;des données &lt;br&gt;API yfinance" style="points=[[0.25,0,0],[0.5,0,0],[0.75,0,0],[1,0.25,0],[1,0.5,0],[1,0.75,0],[0.75,1,0],[0.5,1,0],[0.25,1,0],[0,0.75,0],[0,0.5,0],[0,0.25,0]];shape=mxgraph.bpmn.task;whiteSpace=wrap;rectStyle=rounded;size=10;html=1;container=1;expand=0;collapsible=0;taskMarker=script;fillColor=#dae8fc;strokeColor=#6c8ebf;" vertex="1" parent="1">
          <mxGeometry x="340" y="135" width="120" height="80" as="geometry" />
        </mxCell>
        <mxCell id="PFMPHeuaQwfX52uo41oM-19" style="rounded=0;orthogonalLoop=1;jettySize=auto;html=1;shape=link;" edge="1" parent="1" source="PFMPHeuaQwfX52uo41oM-16" target="PFMPHeuaQwfX52uo41oM-18">
          <mxGeometry relative="1" as="geometry" />
        </mxCell>
        <mxCell id="PFMPHeuaQwfX52uo41oM-16" value="Stockage dans le datalake" style="points=[[0.25,0,0],[0.5,0,0],[0.75,0,0],[1,0.25,0],[1,0.5,0],[1,0.75,0],[0.75,1,0],[0.5,1,0],[0.25,1,0],[0,0.75,0],[0,0.5,0],[0,0.25,0]];shape=mxgraph.bpmn.task;whiteSpace=wrap;rectStyle=rounded;size=10;html=1;container=1;expand=0;collapsible=0;taskMarker=abstract;fillColor=#dae8fc;strokeColor=#6c8ebf;" vertex="1" parent="1">
          <mxGeometry x="550" y="135" width="120" height="80" as="geometry" />
        </mxCell>
        <mxCell id="PFMPHeuaQwfX52uo41oM-21" style="edgeStyle=orthogonalEdgeStyle;rounded=0;orthogonalLoop=1;jettySize=auto;html=1;exitX=1;exitY=0.5;exitDx=0;exitDy=0;" edge="1" parent="1" source="PFMPHeuaQwfX52uo41oM-18" target="PFMPHeuaQwfX52uo41oM-20">
          <mxGeometry relative="1" as="geometry" />
        </mxCell>
        <mxCell id="PFMPHeuaQwfX52uo41oM-18" value="Données sous format csv" style="shape=image;html=1;verticalAlign=top;verticalLabelPosition=bottom;labelBackgroundColor=#ffffff;imageAspect=0;aspect=fixed;image=https://cdn0.iconfinder.com/data/icons/phosphor-thin-vol-2/256/file-csv-thin-128.png" vertex="1" parent="1">
          <mxGeometry x="770" y="111" width="128" height="128" as="geometry" />
        </mxCell>
        <mxCell id="PFMPHeuaQwfX52uo41oM-25" style="edgeStyle=orthogonalEdgeStyle;rounded=0;orthogonalLoop=1;jettySize=auto;html=1;exitX=1;exitY=0.5;exitDx=0;exitDy=0;exitPerimeter=0;" edge="1" parent="1" source="PFMPHeuaQwfX52uo41oM-20" target="PFMPHeuaQwfX52uo41oM-24">
          <mxGeometry relative="1" as="geometry" />
        </mxCell>
        <mxCell id="PFMPHeuaQwfX52uo41oM-20" value="Création des tables et insertion des données &lt;br&gt;dans la base PostgreSQL" style="points=[[0.25,0,0],[0.5,0,0],[0.75,0,0],[1,0.25,0],[1,0.5,0],[1,0.75,0],[0.75,1,0],[0.5,1,0],[0.25,1,0],[0,0.75,0],[0,0.5,0],[0,0.25,0]];shape=mxgraph.bpmn.task;whiteSpace=wrap;rectStyle=rounded;size=10;html=1;container=1;expand=0;collapsible=0;taskMarker=abstract;fillColor=#dae8fc;strokeColor=#6c8ebf;" vertex="1" parent="1">
          <mxGeometry x="960" y="135" width="120" height="80" as="geometry" />
        </mxCell>
        <mxCell id="PFMPHeuaQwfX52uo41oM-30" style="edgeStyle=orthogonalEdgeStyle;rounded=0;orthogonalLoop=1;jettySize=auto;html=1;" edge="1" parent="1" source="PFMPHeuaQwfX52uo41oM-22" target="PFMPHeuaQwfX52uo41oM-29">
          <mxGeometry relative="1" as="geometry" />
        </mxCell>
        <mxCell id="PFMPHeuaQwfX52uo41oM-22" value="datawarehouse&lt;br&gt;stocks" style="image;aspect=fixed;html=1;points=[];align=center;fontSize=12;image=img/lib/azure2/databases/Azure_Database_PostgreSQL_Server.svg;" vertex="1" parent="1">
          <mxGeometry x="1370" y="121" width="78" height="104" as="geometry" />
        </mxCell>
        <mxCell id="PFMPHeuaQwfX52uo41oM-24" value="localhost:5432" style="image;points=[];aspect=fixed;html=1;align=center;shadow=0;dashed=0;image=img/lib/allied_telesis/computer_and_terminals/Server_Desktop.svg;" vertex="1" parent="1">
          <mxGeometry x="1200" y="125" width="78.89" height="100" as="geometry" />
        </mxCell>
        <mxCell id="PFMPHeuaQwfX52uo41oM-28" style="edgeStyle=orthogonalEdgeStyle;rounded=0;orthogonalLoop=1;jettySize=auto;html=1;entryX=-0.038;entryY=0.519;entryDx=0;entryDy=0;entryPerimeter=0;" edge="1" parent="1" source="PFMPHeuaQwfX52uo41oM-24" target="PFMPHeuaQwfX52uo41oM-22">
          <mxGeometry relative="1" as="geometry" />
        </mxCell>
        <mxCell id="PFMPHeuaQwfX52uo41oM-29" value="&lt;div&gt;End&lt;/div&gt;&lt;div&gt;&lt;br&gt;&lt;/div&gt;" style="shape=mxgraph.bpmn.shape;html=1;verticalLabelPosition=bottom;labelBackgroundColor=#ffffff;verticalAlign=top;perimeter=ellipsePerimeter;outline=end;symbol=general;fillColor=#f8cecc;strokeColor=#b85450;" vertex="1" parent="1">
          <mxGeometry x="1570" y="148" width="50" height="50" as="geometry" />
        </mxCell>
        <mxCell id="PFMPHeuaQwfX52uo41oM-31" value="Planification de &lt;br&gt;la tâche à 9h, tous les jours (ouvrés)" style="points=[[0.25,0,0],[0.5,0,0],[0.75,0,0],[1,0.25,0],[1,0.5,0],[1,0.75,0],[0.75,1,0],[0.5,1,0],[0.25,1,0],[0,0.75,0],[0,0.5,0],[0,0.25,0]];shape=mxgraph.bpmn.task;whiteSpace=wrap;rectStyle=rounded;size=10;html=1;container=1;expand=0;collapsible=0;taskMarker=abstract;isLoopStandard=1;fillColor=#fff2cc;strokeColor=#d6b656;" vertex="1" parent="1">
          <mxGeometry x="370" y="660" width="120" height="80" as="geometry" />
        </mxCell>
        <mxCell id="PFMPHeuaQwfX52uo41oM-34" style="edgeStyle=orthogonalEdgeStyle;rounded=0;orthogonalLoop=1;jettySize=auto;html=1;" edge="1" parent="1" source="PFMPHeuaQwfX52uo41oM-32" target="PFMPHeuaQwfX52uo41oM-31">
          <mxGeometry relative="1" as="geometry" />
        </mxCell>
        <mxCell id="PFMPHeuaQwfX52uo41oM-35" style="edgeStyle=orthogonalEdgeStyle;rounded=0;orthogonalLoop=1;jettySize=auto;html=1;" edge="1" parent="1" source="PFMPHeuaQwfX52uo41oM-32" target="PFMPHeuaQwfX52uo41oM-2">
          <mxGeometry relative="1" as="geometry" />
        </mxCell>
        <mxCell id="PFMPHeuaQwfX52uo41oM-32" value="9H00" style="points=[[0.145,0.145,0],[0.5,0,0],[0.855,0.145,0],[1,0.5,0],[0.855,0.855,0],[0.5,1,0],[0.145,0.855,0],[0,0.5,0]];shape=mxgraph.bpmn.event;html=1;verticalLabelPosition=bottom;labelBackgroundColor=#ffffff;verticalAlign=top;align=center;perimeter=ellipsePerimeter;outlineConnect=0;aspect=fixed;outline=eventNonint;symbol=timer;" vertex="1" parent="1">
          <mxGeometry x="310" y="495" width="50" height="50" as="geometry" />
        </mxCell>
        <mxCell id="PFMPHeuaQwfX52uo41oM-40" style="edgeStyle=orthogonalEdgeStyle;rounded=0;orthogonalLoop=1;jettySize=auto;html=1;" edge="1" parent="1" source="PFMPHeuaQwfX52uo41oM-36" target="PFMPHeuaQwfX52uo41oM-39">
          <mxGeometry relative="1" as="geometry" />
        </mxCell>
        <mxCell id="PFMPHeuaQwfX52uo41oM-36" value="ETL pour vérifier la qualité des données" style="points=[[0.25,0,0],[0.5,0,0],[0.75,0,0],[1,0.25,0],[1,0.5,0],[1,0.75,0],[0.75,1,0],[0.5,1,0],[0.25,1,0],[0,0.75,0],[0,0.5,0],[0,0.25,0]];shape=mxgraph.bpmn.task;whiteSpace=wrap;rectStyle=rounded;size=10;html=1;container=1;expand=0;collapsible=0;taskMarker=script;fillColor=#dae8fc;strokeColor=#6c8ebf;" vertex="1" parent="1">
          <mxGeometry x="720" y="480" width="120" height="80" as="geometry" />
        </mxCell>
        <mxCell id="PFMPHeuaQwfX52uo41oM-42" style="edgeStyle=orthogonalEdgeStyle;rounded=0;orthogonalLoop=1;jettySize=auto;html=1;" edge="1" parent="1" source="PFMPHeuaQwfX52uo41oM-39" target="PFMPHeuaQwfX52uo41oM-44">
          <mxGeometry relative="1" as="geometry">
            <mxPoint x="1090" y="520" as="targetPoint" />
          </mxGeometry>
        </mxCell>
        <mxCell id="PFMPHeuaQwfX52uo41oM-43" value="Non" style="edgeLabel;html=1;align=center;verticalAlign=middle;resizable=0;points=[];" vertex="1" connectable="0" parent="PFMPHeuaQwfX52uo41oM-42">
          <mxGeometry x="-0.1203" relative="1" as="geometry">
            <mxPoint as="offset" />
          </mxGeometry>
        </mxCell>
        <mxCell id="PFMPHeuaQwfX52uo41oM-49" style="edgeStyle=orthogonalEdgeStyle;rounded=0;orthogonalLoop=1;jettySize=auto;html=1;exitX=0.5;exitY=1;exitDx=0;exitDy=0;exitPerimeter=0;entryX=0;entryY=0.5;entryDx=0;entryDy=0;" edge="1" parent="1" source="PFMPHeuaQwfX52uo41oM-39" target="PFMPHeuaQwfX52uo41oM-48">
          <mxGeometry relative="1" as="geometry" />
        </mxCell>
        <mxCell id="PFMPHeuaQwfX52uo41oM-50" value="Oui" style="edgeLabel;html=1;align=center;verticalAlign=middle;resizable=0;points=[];" vertex="1" connectable="0" parent="PFMPHeuaQwfX52uo41oM-49">
          <mxGeometry x="-0.2364" y="-1" relative="1" as="geometry">
            <mxPoint as="offset" />
          </mxGeometry>
        </mxCell>
        <mxCell id="PFMPHeuaQwfX52uo41oM-39" value="" style="points=[[0.25,0.25,0],[0.5,0,0],[0.75,0.25,0],[1,0.5,0],[0.75,0.75,0],[0.5,1,0],[0.25,0.75,0],[0,0.5,0]];shape=mxgraph.bpmn.gateway2;html=1;verticalLabelPosition=bottom;labelBackgroundColor=#ffffff;verticalAlign=top;align=center;perimeter=rhombusPerimeter;outlineConnect=0;outline=none;symbol=none;gwType=exclusive;" vertex="1" parent="1">
          <mxGeometry x="920" y="495" width="50" height="50" as="geometry" />
        </mxCell>
        <mxCell id="PFMPHeuaQwfX52uo41oM-41" value="si données cohérentes" style="text;html=1;align=center;verticalAlign=middle;resizable=0;points=[];autosize=1;strokeColor=none;fillColor=none;" vertex="1" parent="1">
          <mxGeometry x="870" y="470" width="150" height="30" as="geometry" />
        </mxCell>
        <mxCell id="PFMPHeuaQwfX52uo41oM-44" value="Sauvegarde des données incohérentes dans un fichier excel" style="shape=ext;rounded=1;html=1;whiteSpace=wrap;" vertex="1" parent="1">
          <mxGeometry x="1110" y="480" width="120" height="80" as="geometry" />
        </mxCell>
        <mxCell id="PFMPHeuaQwfX52uo41oM-45" value="&lt;div&gt;unvalid_data.xlsx&lt;/div&gt;" style="shape=image;html=1;verticalAlign=top;verticalLabelPosition=bottom;labelBackgroundColor=#ffffff;imageAspect=0;aspect=fixed;image=https://cdn3.iconfinder.com/data/icons/document-icons-2/30/647702-excel-128.png" vertex="1" parent="1">
          <mxGeometry x="1242" y="451" width="128" height="128" as="geometry" />
        </mxCell>
        <mxCell id="PFMPHeuaQwfX52uo41oM-55" style="edgeStyle=orthogonalEdgeStyle;rounded=0;orthogonalLoop=1;jettySize=auto;html=1;" edge="1" parent="1" source="PFMPHeuaQwfX52uo41oM-48" target="PFMPHeuaQwfX52uo41oM-52">
          <mxGeometry relative="1" as="geometry" />
        </mxCell>
        <mxCell id="PFMPHeuaQwfX52uo41oM-48" value="Récupère la donnée la plus récente du jour pour chaque action " style="shape=ext;rounded=1;html=1;whiteSpace=wrap;" vertex="1" parent="1">
          <mxGeometry x="1000" y="670" width="120" height="80" as="geometry" />
        </mxCell>
        <mxCell id="PFMPHeuaQwfX52uo41oM-64" style="edgeStyle=orthogonalEdgeStyle;rounded=0;orthogonalLoop=1;jettySize=auto;html=1;" edge="1" parent="1" source="PFMPHeuaQwfX52uo41oM-52" target="PFMPHeuaQwfX52uo41oM-65">
          <mxGeometry relative="1" as="geometry">
            <mxPoint x="1440" y="710" as="targetPoint" />
          </mxGeometry>
        </mxCell>
        <mxCell id="PFMPHeuaQwfX52uo41oM-52" value="" style="points=[[0.25,0.25,0],[0.5,0,0],[0.75,0.25,0],[1,0.5,0],[0.75,0.75,0],[0.5,1,0],[0.25,0.75,0],[0,0.5,0]];shape=mxgraph.bpmn.gateway2;html=1;verticalLabelPosition=bottom;labelBackgroundColor=#ffffff;verticalAlign=top;align=center;perimeter=rhombusPerimeter;outlineConnect=0;outline=none;symbol=none;gwType=exclusive;direction=south;" vertex="1" parent="1">
          <mxGeometry x="1225" y="685" width="50" height="50" as="geometry" />
        </mxCell>
        <mxCell id="PFMPHeuaQwfX52uo41oM-54" value="&lt;div&gt;si dernière ligne du DataFrame non vide&lt;/div&gt;" style="text;html=1;align=center;verticalAlign=middle;resizable=0;points=[];autosize=1;strokeColor=none;fillColor=none;" vertex="1" parent="1">
          <mxGeometry x="1133" y="655" width="240" height="30" as="geometry" />
        </mxCell>
        <mxCell id="PFMPHeuaQwfX52uo41oM-62" style="edgeStyle=orthogonalEdgeStyle;rounded=0;orthogonalLoop=1;jettySize=auto;html=1;" edge="1" parent="1" source="PFMPHeuaQwfX52uo41oM-56" target="PFMPHeuaQwfX52uo41oM-60">
          <mxGeometry relative="1" as="geometry" />
        </mxCell>
        <mxCell id="PFMPHeuaQwfX52uo41oM-56" value="Insertion de la dernière ligne dans la base de données&lt;br&gt;pour chaque table&lt;div&gt;&lt;br/&gt;&lt;/div&gt;" style="points=[[0.25,0,0],[0.5,0,0],[0.75,0,0],[1,0.25,0],[1,0.5,0],[1,0.75,0],[0.75,1,0],[0.5,1,0],[0.25,1,0],[0,0.75,0],[0,0.5,0],[0,0.25,0]];shape=mxgraph.bpmn.task;whiteSpace=wrap;rectStyle=rounded;size=10;html=1;container=1;expand=0;collapsible=0;taskMarker=abstract;fillColor=#dae8fc;strokeColor=#6c8ebf;" vertex="1" parent="1">
          <mxGeometry x="1190" y="845" width="120" height="80" as="geometry" />
        </mxCell>
        <mxCell id="PFMPHeuaQwfX52uo41oM-57" style="edgeStyle=orthogonalEdgeStyle;rounded=0;orthogonalLoop=1;jettySize=auto;html=1;entryX=0.5;entryY=0;entryDx=0;entryDy=0;entryPerimeter=0;" edge="1" parent="1" source="PFMPHeuaQwfX52uo41oM-52" target="PFMPHeuaQwfX52uo41oM-56">
          <mxGeometry relative="1" as="geometry" />
        </mxCell>
        <mxCell id="PFMPHeuaQwfX52uo41oM-58" value="(fréquence : 10min)" style="text;html=1;align=center;verticalAlign=middle;resizable=0;points=[];autosize=1;strokeColor=none;fillColor=none;" vertex="1" parent="1">
          <mxGeometry x="520" y="565" width="130" height="30" as="geometry" />
        </mxCell>
        <mxCell id="PFMPHeuaQwfX52uo41oM-68" style="edgeStyle=orthogonalEdgeStyle;rounded=0;orthogonalLoop=1;jettySize=auto;html=1;" edge="1" parent="1" source="PFMPHeuaQwfX52uo41oM-59" target="PFMPHeuaQwfX52uo41oM-67">
          <mxGeometry relative="1" as="geometry" />
        </mxCell>
        <mxCell id="PFMPHeuaQwfX52uo41oM-59" value="datawarehouse&lt;br&gt;stocks" style="image;aspect=fixed;html=1;points=[];align=center;fontSize=12;image=img/lib/azure2/databases/Azure_Database_PostgreSQL_Server.svg;" vertex="1" parent="1">
          <mxGeometry x="1380" y="1000" width="78" height="104" as="geometry" />
        </mxCell>
        <mxCell id="PFMPHeuaQwfX52uo41oM-60" value="localhost:5432" style="image;points=[];aspect=fixed;html=1;align=center;shadow=0;dashed=0;image=img/lib/allied_telesis/computer_and_terminals/Server_Desktop.svg;" vertex="1" parent="1">
          <mxGeometry x="1210" y="1004" width="78.89" height="100" as="geometry" />
        </mxCell>
        <mxCell id="PFMPHeuaQwfX52uo41oM-61" style="edgeStyle=orthogonalEdgeStyle;rounded=0;orthogonalLoop=1;jettySize=auto;html=1;entryX=-0.038;entryY=0.519;entryDx=0;entryDy=0;entryPerimeter=0;" edge="1" source="PFMPHeuaQwfX52uo41oM-60" target="PFMPHeuaQwfX52uo41oM-59" parent="1">
          <mxGeometry relative="1" as="geometry" />
        </mxCell>
        <mxCell id="PFMPHeuaQwfX52uo41oM-65" value="Fin du processus : regarder les logs" style="points=[[0.145,0.145,0],[0.5,0,0],[0.855,0.145,0],[1,0.5,0],[0.855,0.855,0],[0.5,1,0],[0.145,0.855,0],[0,0.5,0]];shape=mxgraph.bpmn.event;html=1;verticalLabelPosition=bottom;labelBackgroundColor=#ffffff;verticalAlign=top;align=center;perimeter=ellipsePerimeter;outlineConnect=0;aspect=fixed;outline=end;symbol=error;fillColor=#f8cecc;strokeColor=#b85450;" vertex="1" parent="1">
          <mxGeometry x="1440" y="685" width="50" height="50" as="geometry" />
        </mxCell>
        <mxCell id="PFMPHeuaQwfX52uo41oM-67" value="17H" style="points=[[0.145,0.145,0],[0.5,0,0],[0.855,0.145,0],[1,0.5,0],[0.855,0.855,0],[0.5,1,0],[0.145,0.855,0],[0,0.5,0]];shape=mxgraph.bpmn.event;html=1;verticalLabelPosition=bottom;labelBackgroundColor=#ffffff;verticalAlign=top;align=center;perimeter=ellipsePerimeter;outlineConnect=0;aspect=fixed;outline=boundInt;symbol=timer;" vertex="1" parent="1">
          <mxGeometry x="1610" y="1027" width="50" height="50" as="geometry" />
        </mxCell>
        <mxCell id="PFMPHeuaQwfX52uo41oM-69" value="Planification de &lt;br&gt;l&#39;arrêt de la tâche à 17h, tous les jours (ouvrés)" style="points=[[0.25,0,0],[0.5,0,0],[0.75,0,0],[1,0.25,0],[1,0.5,0],[1,0.75,0],[0.75,1,0],[0.5,1,0],[0.25,1,0],[0,0.75,0],[0,0.5,0],[0,0.25,0]];shape=mxgraph.bpmn.task;whiteSpace=wrap;rectStyle=rounded;size=10;html=1;container=1;expand=0;collapsible=0;taskMarker=abstract;isLoopStandard=1;fillColor=#ffe6cc;strokeColor=#d79b00;" vertex="1" parent="1">
          <mxGeometry x="1760" y="1170" width="120" height="80" as="geometry" />
        </mxCell>
        <mxCell id="PFMPHeuaQwfX52uo41oM-70" style="edgeStyle=orthogonalEdgeStyle;rounded=0;orthogonalLoop=1;jettySize=auto;html=1;entryX=0;entryY=0.5;entryDx=0;entryDy=0;entryPerimeter=0;" edge="1" parent="1" source="PFMPHeuaQwfX52uo41oM-67" target="PFMPHeuaQwfX52uo41oM-69">
          <mxGeometry relative="1" as="geometry" />
        </mxCell>
        <mxCell id="PFMPHeuaQwfX52uo41oM-79" style="edgeStyle=orthogonalEdgeStyle;rounded=0;orthogonalLoop=1;jettySize=auto;html=1;" edge="1" parent="1" source="PFMPHeuaQwfX52uo41oM-71" target="PFMPHeuaQwfX52uo41oM-74">
          <mxGeometry relative="1" as="geometry" />
        </mxCell>
        <mxCell id="PFMPHeuaQwfX52uo41oM-71" value="Récupération des données quotidien dans la table " style="points=[[0.25,0,0],[0.5,0,0],[0.75,0,0],[1,0.25,0],[1,0.5,0],[1,0.75,0],[0.75,1,0],[0.5,1,0],[0.25,1,0],[0,0.75,0],[0,0.5,0],[0,0.25,0]];shape=mxgraph.bpmn.task;whiteSpace=wrap;rectStyle=rounded;size=10;html=1;container=1;expand=0;collapsible=0;taskMarker=abstract;fillColor=#dae8fc;strokeColor=#6c8ebf;" vertex="1" parent="1">
          <mxGeometry x="1880" y="1013" width="120" height="78" as="geometry" />
        </mxCell>
        <mxCell id="PFMPHeuaQwfX52uo41oM-72" style="edgeStyle=orthogonalEdgeStyle;rounded=0;orthogonalLoop=1;jettySize=auto;html=1;entryX=0;entryY=0.5;entryDx=0;entryDy=0;entryPerimeter=0;" edge="1" parent="1" source="PFMPHeuaQwfX52uo41oM-67" target="PFMPHeuaQwfX52uo41oM-71">
          <mxGeometry relative="1" as="geometry" />
        </mxCell>
        <mxCell id="PFMPHeuaQwfX52uo41oM-73" value="&lt;div&gt;Intraday data&lt;/div&gt;&lt;div&gt;&lt;br&gt;&lt;/div&gt;" style="text;html=1;align=center;verticalAlign=middle;resizable=0;points=[];autosize=1;strokeColor=none;fillColor=none;" vertex="1" parent="1">
          <mxGeometry x="1895" y="1098" width="90" height="40" as="geometry" />
        </mxCell>
        <mxCell id="PFMPHeuaQwfX52uo41oM-74" value="&lt;br&gt;Envoie du mail avec le fichier excel contenant les données quotidiens" style="points=[[0.25,0,0],[0.5,0,0],[0.75,0,0],[1,0.25,0],[1,0.5,0],[1,0.75,0],[0.75,1,0],[0.5,1,0],[0.25,1,0],[0,0.75,0],[0,0.5,0],[0,0.25,0]];shape=mxgraph.bpmn.task;whiteSpace=wrap;rectStyle=rounded;size=10;html=1;container=1;expand=0;collapsible=0;taskMarker=send;" vertex="1" parent="1">
          <mxGeometry x="2110" y="1012" width="120" height="80" as="geometry" />
        </mxCell>
        <mxCell id="PFMPHeuaQwfX52uo41oM-78" value="&lt;div&gt;Boucle sur chaque action&lt;/div&gt;" style="text;html=1;align=center;verticalAlign=middle;resizable=0;points=[];autosize=1;strokeColor=#9673a6;fillColor=#e1d5e7;" vertex="1" parent="1">
          <mxGeometry x="1860" y="974" width="160" height="30" as="geometry" />
        </mxCell>
        <mxCell id="PFMPHeuaQwfX52uo41oM-83" style="edgeStyle=orthogonalEdgeStyle;rounded=0;orthogonalLoop=1;jettySize=auto;html=1;" edge="1" parent="1" source="PFMPHeuaQwfX52uo41oM-80" target="PFMPHeuaQwfX52uo41oM-81">
          <mxGeometry relative="1" as="geometry" />
        </mxCell>
        <mxCell id="PFMPHeuaQwfX52uo41oM-80" value="" style="shape=image;html=1;verticalAlign=top;verticalLabelPosition=bottom;labelBackgroundColor=#ffffff;imageAspect=0;aspect=fixed;image=https://cdn0.iconfinder.com/data/icons/logos-microsoft-office-365/128/Microsoft_Office-07-128.png" vertex="1" parent="1">
          <mxGeometry x="2240" y="1023" width="58" height="58" as="geometry" />
        </mxCell>
        <mxCell id="PFMPHeuaQwfX52uo41oM-81" value="&lt;div&gt;End&lt;/div&gt;&lt;div&gt;&lt;br&gt;&lt;/div&gt;" style="shape=mxgraph.bpmn.shape;html=1;verticalLabelPosition=bottom;labelBackgroundColor=#ffffff;verticalAlign=top;perimeter=ellipsePerimeter;outline=end;symbol=general;fillColor=#f8cecc;strokeColor=#b85450;" vertex="1" parent="1">
          <mxGeometry x="2440" y="1027" width="50" height="50" as="geometry" />
        </mxCell>
      </root>
    </mxGraphModel>
  </diagram>
</mxfile>
